#!OML:ASF F:\twosubjects\two\Thursday\Session 1\Rory.ASF
:FULLY-SPECIFIED
:DEGREES
495
root 8.43146 14.1561 11.8418 -157.623 -19.4023 165.543
lowerback 23.07 0.309025 10.0491
upperback 6.20868 1.72462 6.72994
thorax -5.81372 0.161894 1.22939
lowerneck -10.5498 -8.5845 -3.40569
upperneck -10.1719 -11.203 13.6761
head -0.393085 -5.88794 4.72316
rclavicle -9.54166e-014 -6.36111e-014
rhumerus 51.9763 -18.8453 -102.602
rradius 93.234
rwrist -71.1186
rhand -18.3277 -5.70906
rfingers 7.12502
rthumb 7.95407 -35.5394
lclavicle -9.54166e-014 -6.36111e-014
lhumerus -12.2559 -57.7911 101.165
lradius 89.0617
lwrist 14.4609
lhand -32.9889 56.2664
lfingers 7.12502
lthumb -6.20348 -993.844
rfemur -1.0216 20.3119 -15.4782
rtibia 55.9811
rfoot -11.3761 -18.7251
rtoes -31.2344
lfemur -72.222 11.7276 -22.3794
ltibia 81.7268
lfoot -19.8052 -1.82612
ltoes -8.55686
496
root 8.44863 14.1642 11.8347 -157.435 -19.4608 165.819
lowerback 22.8689 0.422361 10.0493
upperback 6.12891 1.87615 6.71771
thorax -5.7932 0.244009 1.17346
lowerneck -9.88043 -8.64766 -3.36478
upperneck -10.5875 -11.2022 14.4587
head -0.470979 -5.93896 4.53861
rclavicle -5.725e-014 1.90833e-014
rhumerus 51.7432 -19.1277 -102.425
rradius 93.426
rwrist -70.9465
rhand -19.5901 -8.25502
rfingers 7.12502
rthumb 6.73553 -38.1279
lclavicle -5.725e-014 1.90833e-014
lhumerus -12.6589 -58.0227 101.514
lradius 88.9331
lwrist 14.2076
lhand -33.0487 56.3612
lfingers 7.12502
lthumb -6.26126 -993.751
rfemur -1.37225 20.1716 -15.2784
rtibia 55.9748
rfoot -11.4255 -18.5407
rtoes -31.2126
lfemur -72.5367 11.9262 -22.1884
ltibia 81.6232
lfoot -19.4861 -2.11062
ltoes -7.07141
497
root 8.46517 14.1925 11.8138 -157.163 -19.3403 165.891
lowerback 22.6462 0.496276 9.74037
upperback 6.3237 1.82915 6.73349
thorax -5.48032 0.230841 1.37
lowerneck -10.4802 -8.72437 -3.68322
upperneck -10.3605 -11.3054 14.8911
head -0.249914 -5.96304 4.67433
rclavicle 4.77083e-014 1.59028e-014
rhumerus 51.9195 -18.8813 -102.384
rradius 93.6115
rwrist -70.8864
rhand -20.7383 -12.66
rfingers 7.12502
rthumb 5.627 -42.5653
lclavicle 4.77083e-014 1.59028e-014
lhumerus -11.5357 -57.8557 100.492
lradius 88.7917
lwrist 14.1491
lhand -33.2106 56.4228
lfingers 7.12502
lthumb -6.41757 -993.694
rfemur -1.8212 20.0139 -15.4158
rtibia 55.949
rfoot -11.7142 -18.0085
rtoes -30.7518
lfemur -72.6693 12.1435 -22.2059
ltibia 81.4275
lfoot -19.2946 -2.45941
ltoes -5.30341
498
root 8.47956 14.2179 11.7971 -156.951 -19.2245 165.978
lowerback 22.5608 0.773248 9.52617
upperback 6.27143 2.16603 6.66425
thorax -5.4919 0.406992 1.32299
lowerneck -9.9962 -9.0085 -3.60634
upperneck -10.6509 -11.6446 15.3623
head -0.349359 -6.16401 4.81144
rclavicle -2.54444e-014 -3.81667e-014
rhumerus 51.6164 -19.5822 -102.066
rradius 94.305
rwrist -71.2222
rhand -22.89 -18.9603
rfingers 7.12502
rthumb 3.54929 -48.9105
lclavicle -2.54444e-014 -3.81667e-014
lhumerus -11.7971 -58.4403 100.754
lradius 88.7453
lwrist 14.0734
lhand -33.4423 56.5165
lfingers 7.12502
lthumb -6.64123 -993.608
rfemur -2.21976 19.862 -15.5688
rtibia 55.9105
rfoot -12.0982 -17.4238
rtoes -30.3079
lfemur -72.7659 12.381 -22.2424
ltibia 81.1862
lfoot -19.2125 -2.34027
ltoes -5.52115
499
root 8.49191 14.2368 11.7865 -156.739 -19.2003 166.194
lowerback 22.4764 0.889949 9.50368
upperback 6.36768 2.27844 6.6927
thorax -5.33918 0.463106 1.33618
lowerneck -10.5724 -9.22772 -3.94983
upperneck -10.3698 -11.9321 16.0054
head -0.077182 -6.27183 4.9976
rclavicle 3.81667e-014 4.77083e-014
rhumerus 51.9638 -19.6388 -102.182
rradius 95.0686
rwrist -71.8727
rhand -23.4953 -18.211
rfingers 7.12502
rthumb 2.96478 -48.1702
lclavicle 3.81667e-014 4.77083e-014
lhumerus -11.5263 -58.5771 100.627
lradius 88.6757
lwrist 13.9195
lhand -33.6366 56.5194
lfingers 7.12502
lthumb -6.82873 -993.611
rfemur -2.59728 19.7182 -15.5123
rtibia 55.8859
rfoot -12.3755 -17.1464
rtoes -29.9695
lfemur -72.9545 12.6168 -22.1882
ltibia 80.9229
lfoot -19.0393 -1.97009
ltoes -6.94643
500
root 8.50218 14.2532 11.7795 -156.506 -19.2196 166.342
lowerback 22.4266 0.907569 9.50073
upperback 6.28679 2.32446 6.59547
thorax -5.39876 0.493276 1.21912
lowerneck -10.5542 -9.33806 -4.06666
upperneck -9.99719 -12.0853 16.4305
head 0.0870927 -6.32067 5.11666
rclavicle 6.99722e-014 4.45278e-014
rhumerus 52.2739 -19.6841 -102.7
rradius 95.4988
rwrist -72.1141
rhand -23.8877 -18.4712
rfingers 7.12502
rthumb 2.5858 -48.4352
lclavicle 6.99722e-014 4.45278e-014
lhumerus -11.7368 -58.6723 100.62
lradius 88.6268
lwrist 13.8232
lhand -33.6849 56.4988
lfingers 7.12502
lthumb -6.87543 -993.633
rfemur -2.92015 19.522 -15.5101
rtibia 55.8647
rfoot -12.658 -16.8098
rtoes -29.2005
lfemur -73.1233 12.701 -22.1214
ltibia 80.6661
lfoot -18.7806 -2.08651
ltoes -5.91683
501
root 8.51635 14.2639 11.7727 -156.417 -19.2182 166.455
lowerback 22.5581 0.908257 9.45105
upperback 6.17893 2.36546 6.49074
thorax -5.58396 0.51577 1.12146
lowerneck -10.0918 -9.39815 -4.28881
upperneck -9.91653 -12.1352 16.8612
head 0.0935281 -6.34747 5.29162
rclavicle -3.18055e-014 4.13472e-014
rhumerus 52.3 -19.9811 -103.012
rradius 94.7933
rwrist -69.6283
rhand -20.6931 -19.632
rfingers 7.12502
rthumb 5.67062 -49.5361
lclavicle -3.18055e-014 4.13472e-014
lhumerus -11.9827 -58.7522 100.704
lradius 88.4769
lwrist 13.6404
lhand -33.6183 56.5054
lfingers 7.12502
lthumb -6.81109 -993.624
rfemur -3.14376 19.337 -15.5385
rtibia 55.8315
rfoot -12.6569 -16.4082
rtoes -29.0913
lfemur -73.1535 12.8437 -22.0642
ltibia 80.4361
lfoot -18.676 -2.30809
ltoes -5.38948
502
root 8.5336 14.2807 11.7568 -156.425 -19.108 166.508
lowerback 22.7686 0.996544 9.13948
upperback 6.19427 2.43876 6.46717
thorax -5.69038 0.550302 1.24909
lowerneck -9.86699 -9.51984 -4.66624
upperneck -9.82831 -12.2608 17.3305
head 0.160874 -6.40119 5.48562
rclavicle -9.54166e-015 4.77083e-014
rhumerus 51.7309 -20.0985 -102.514
rradius 95.5254
rwrist -71.9319
rhand -22.7867 -18.6542
rfingers 7.12502
rthumb 3.64906 -48.6027
lclavicle -9.54166e-015 4.77083e-014
lhumerus -11.8478 -58.8345 100.756
lradius 88.1071
lwrist 13.3158
lhand -33.5974 56.3889
lfingers 7.12502
lthumb -6.79098 -993.74
rfemur -3.27877 19.1319 -15.6312
rtibia 55.7455
rfoot -12.1027 -16.1369
rtoes -29.6435
lfemur -72.9867 13.1517 -22.1134
ltibia 80.1956
lfoot -18.836 -2.30656
ltoes -6.77795
503
root 8.54689 14.2976 11.7405 -156.197 -18.8946 166.339
lowerback 22.7744 1.18342 8.52199
upperback 6.23981 2.55204 6.45119
thorax -5.67742 0.615846 1.54446
lowerneck -10.1664 -9.62667 -5.05204
upperneck -9.2204 -12.4086 17.5439
head 0.445985 -6.40866 5.56091
rclavicle 6.36111e-014 2.8625e-014
rhumerus 51.2356 -20.4827 -102.216
rradius 95.5376
rwrist -71.0011
rhand -21.2576 -18.7475
rfingers 7.12502
rthumb 5.12561 -48.6655
lclavicle 6.36111e-014 2.8625e-014
lhumerus -11.3658 -59.0709 100.497
lradius 87.8306
lwrist 13.1924
lhand -33.6821 56.4544
lfingers 7.12502
lthumb -6.87265 -993.677
rfemur -3.53708 18.7044 -16.0961
rtibia 55.635
rfoot -11.5151 -15.8805
rtoes -30.3226
lfemur -72.9646 13.3392 -22.3981
ltibia 79.9615
lfoot -18.8722 -2.22045
ltoes -6.44485
504
root 8.55337 14.3069 11.7318 -155.659 -18.8647 166.436
lowerback 22.3466 1.32504 8.2817
upperback 6.17369 2.67037 6.46154
thorax -5.54442 0.691799 1.65926
lowerneck -10.3262 -9.71565 -5.31563
upperneck -8.79018 -12.5341 17.7862
head 0.649549 -6.42701 5.64065
rclavicle -8.26944e-014 -9.54166e-014
rhumerus 50.6486 -20.5632 -101.492
rradius 96.713
rwrist -74.3816
rhand -24.6195 -16.5469
rfingers 7.12502
rthumb 1.8791 -46.5183
lclavicle -8.26944e-014 -9.54166e-014
lhumerus -10.884 -59.3548 100.089
lradius 87.7439
lwrist 13.3247
lhand -33.7445 56.7805
lfingers 7.12502
lthumb -6.93297 -993.353
rfemur -4.19273 17.9493 -16.3867
rtibia 55.5683
rfoot -11.1842 -15.6345
rtoes -31.2568
lfemur -73.5187 13.3641 -22.4337
ltibia 79.7869
lfoot -18.7013 -2.15955
ltoes -5.5706
505
root 8.56834 14.3215 11.7118 -155.461 -18.9104 167.036
lowerback 22.1557 1.43515 8.41876
upperback 6.14106 2.82883 6.52014
thorax -5.47194 0.769802 1.60696
lowerneck -10.5101 -9.90531 -5.02297
upperneck -8.65408 -12.8294 17.8239
head 0.734257 -6.56483 5.56943
rclavicle -4.45278e-014 -6.36111e-015
rhumerus 50.4609 -20.7852 -101.175
rradius 96.7372
rwrist -75.097
rhand -25.0387 -15.5639
rfingers 7.12502
rthumb 1.47421 -45.5385
lclavicle -4.45278e-014 -6.36111e-015
lhumerus -11.3252 -59.3668 100.491
lradius 87.7351
lwrist 12.7597
lhand -33.8587 57.099
lfingers 7.12502
lthumb -7.04317 -993.038
rfemur -4.73253 17.5649 -15.9244
rtibia 55.5209
rfoot -11.4352 -15.6462
rtoes -31.4123
lfemur -73.8814 13.7567 -21.9634
ltibia 79.6478
lfoot -18.6203 -2.16676
ltoes -7.35498
506
root 8.57524 14.3343 11.6924 -155.213 -18.8096 167.234
lowerback 22.017 1.54521 8.17309
upperback 6.10511 2.92096 6.55364
thorax -5.45654 0.821165 1.75754
lowerneck -10.5005 -10.0354 -4.93509
upperneck -8.54636 -13.0096 17.6975
head 0.766534 -6.64462 5.5007
rclavicle 6.04305e-014 9.54166e-015
rhumerus 50.2063 -20.9548 -100.997
rradius 96.9166
rwrist -75.8055
rhand -25.3364 -15.264
rfingers 7.12502
rthumb 1.1867 -45.2405
lclavicle 6.04305e-014 9.54166e-015
lhumerus -13.2325 -59.0109 102.414
lradius 87.8703
lwrist 11.2046
lhand -34.0621 57.0543
lfingers 7.12502
lthumb -7.23949 -993.09
rfemur -5.13643 17.2341 -15.9588
rtibia 55.46
rfoot -12.3097 -15.3656
rtoes -30.5376
lfemur -74.1063 14.0177 -21.9243
ltibia 79.5291
lfoot -18.563 -2.08902
ltoes -8.92423
507
root 8.57271 14.3487 11.6746 -154.945 -18.6136 167.012
lowerback 21.9005 1.6733 7.65989
upperback 5.94568 3.02955 6.45226
thorax -5.60127 0.893847 1.90507
lowerneck -9.55955 -10.1387 -5.09656
upperneck -8.66683 -13.095 17.8231
head 0.613836 -6.71309 5.60497
rclavicle 6.67916e-014 3.81667e-014
rhumerus 49.628 -21.4976 -100.903
rradius 97.5457
rwrist -76.2748
rhand -25.4323 -15.2362
rfingers 7.12502
rthumb 1.094 -45.2132
lclavicle 6.67916e-014 3.81667e-014
lhumerus -12.3032 -59.4314 101.527
lradius 87.4115
lwrist 11.6862
lhand -34.1633 56.7023
lfingers 7.12502
lthumb -7.3372 -993.445
rfemur -5.31714 16.8541 -16.4881
rtibia 55.3423
rfoot -12.7814 -14.7307
rtoes -29.5205
lfemur -74.1302 14.0855 -22.2564
ltibia 79.4235
lfoot -18.5867 -2.06884
ltoes -8.172
508
root 8.56872 14.3645 11.6597 -154.719 -18.5813 167.168
lowerback 21.6304 1.74999 7.53018
upperback 5.85315 3.1049 6.48536
thorax -5.57347 0.940478 1.99658
lowerneck -9.08526 -10.305 -5.46879
upperneck -8.44376 -13.289 18.1062
head 0.676456 -6.7935 5.74463
rclavicle -3.81667e-014 -1.59028e-014
rhumerus 49.2973 -21.7761 -100.773
rradius 98.0262
rwrist -76.4421
rhand -25.427 -14.3524
rfingers 7.12502
rthumb 1.09914 -44.3293
lclavicle -3.81667e-014 -1.59028e-014
lhumerus -12.1346 -59.7122 101.322
lradius 86.9888
lwrist 11.8928
lhand -34.2187 56.5291
lfingers 7.12502
lthumb -7.39064 -993.62
rfemur -5.56241 16.4278 -16.5552
rtibia 55.157
rfoot -12.7451 -14.2818
rtoes -28.9503
lfemur -74.3356 14.2362 -22.2297
ltibia 79.3714
lfoot -18.462 -2.36933
ltoes -6.28575
509
root 8.56014 14.3739 11.6551 -154.168 -18.8576 167.578
lowerback 21.0333 1.77689 7.98396
upperback 5.79325 3.18469 6.55188
thorax -5.29996 0.988025 1.80229
lowerneck -9.83789 -10.4908 -5.8955
upperneck -7.61474 -13.5828 18.4727
head 1.13633 -6.84463 5.82568
rclavicle -3.18055e-015 1.59028e-014
rhumerus 49.4535 -22.0148 -100.765
rradius 98.3908
rwrist -76.4843
rhand -25.5121 -13.3148
rfingers 7.12502
rthumb 1.01698 -43.2921
lclavicle -3.18055e-015 1.59028e-014
lhumerus -11.5956 -60.1875 101.037
lradius 86.749
lwrist 11.978
lhand -34.2428 56.7584
lfingers 7.12502
lthumb -7.41392 -993.392
rfemur -6.11055 15.6394 -16.2906
rtibia 54.9344
rfoot -12.6676 -14.2297
rtoes -29.145
lfemur -75.1744 14.1645 -22.0114
ltibia 79.3365
lfoot -18.1827 -2.3733
ltoes -6.82561
